<?xml version="1.0" encoding="UTF-8"?>
<svg width="488px" height="128px" viewBox="0 0 488 128" version="1.1" xmlns="http://www.w3.org/2000/svg" xmlns:xlink="http://www.w3.org/1999/xlink">
    <!-- Generator: Sketch 43.2 (39069) - http://www.bohemiancoding.com/sketch -->
    <title>128 copy</title>
    <desc>Created with Sketch.</desc>
    <defs>
        <linearGradient x1="97.8996694%" y1="50%" x2="1.11022302e-14%" y2="100%" id="linearGradient-1">
            <stop stop-color="#3023AE" offset="0%"></stop>
            <stop stop-color="#C96DD8" offset="100%"></stop>
        </linearGradient>
    </defs>
    <g id="Page-2" stroke="none" stroke-width="1" fill="none" fill-rule="evenodd">
        <g id="128-copy">
            <g id="mountains" transform="translate(10.000000, 20.000000)" fill="url(#linearGradient-1)">
                <g>
                    <path d="M54.3990725,88 L108.798145,88 L64.5972374,0 L54.3985606,20.3052525 L44.1995766,0 L0,88 L54.3990725,88 Z" id="Combined-Shape" style="mix-blend-mode: darken;"></path>
                    <polygon id="Triangle-Copy-14" style="mix-blend-mode: multiply;" points="44.0995561 40.6153846 67.8864618 88 20.3975204 88"></polygon>
                    <polygon id="Triangle-Copy-16" style="mix-blend-mode: multiply;" points="64.6988874 40.6153846 88.4989468 87.9991451 40.8995448 87.9991451"></polygon>
                </g>
            </g>
            <g id="Text" transform="translate(130.000000, 38.000000)" fill="#FFFFFF">
                <g id="Group">
                    <polygon id="M" points="168.619325 47.2340426 182.024198 47.2340426 182.024198 43.4348936 177.617117 43.4348936 177.617117 11.8161702 177.923164 11.8161702 181.534522 20.333617 191.266827 40.6774468 201.427599 19.9659574 204.855329 11.8161702 205.161376 11.8161702 205.161376 43.4348936 200.754294 43.4348936 200.754294 47.2340426 218.688668 47.2340426 218.688668 43.4348936 214.281586 43.4348936 214.281586 8.26212766 218.688668 8.26212766 218.688668 4.46297872 203.937187 4.46297872 193.960044 26.4 193.653996 26.4 183.309597 4.46297872 168.619325 4.46297872 168.619325 8.26212766 173.026407 8.26212766 173.026407 43.4348936 168.619325 43.4348936"></polygon>
                    <path d="M0.109666959,47.2340426 L0.782971078,44.5378723 L4.59836109,44.5378723 L13.0707713,10.7234043 L9.25538124,10.7234043 L9.92868536,8.02723404 L27.3784838,8.02723404 C33.2137862,8.02723404 36.2997634,10.6110638 36.2997634,15.6102128 C36.2997634,20.946383 32.7088081,25.1591489 26.9296144,26.6757447 L26.817397,27.012766 C30.5766784,28.08 33.1015688,30.72 33.1015688,34.7080851 C33.1015688,40.6621277 27.9956792,47.2340426 20.3648992,47.2340426 L0.109666959,47.2340426 Z M14.5857055,28.4731915 L10.6019895,44.3131915 L18.4010955,44.3131915 C22.2725942,44.3131915 25.2463541,41.6731915 26.3124189,37.572766 C26.7051797,36.1685106 27.2101578,34.3148936 27.2101578,33.1914894 C27.2101578,30.3829787 25.6391148,28.4731915 22.4970289,28.4731915 L14.5857055,28.4731915 Z M18.9621823,10.9480851 L15.3151183,25.5523404 L22.2725942,25.5523404 C25.8635495,25.5523404 28.725092,22.9123404 29.6228309,19.2051064 C29.9594829,17.9131915 30.4083523,16.1157447 30.4083523,14.9923404 C30.4083523,12.7455319 29.1739614,10.9480851 26.0879842,10.9480851 L18.9621823,10.9480851 Z M45.0833216,45.2680851 C49.179255,45.2680851 51.5919281,41.3923404 52.826319,36.4493617 C54.7901227,28.5855319 55.2389921,26.6757447 55.2389921,24.9906383 C55.2389921,22.1259574 54.2290359,20.1038298 51.3674934,20.1038298 C47.3276687,20.1038298 44.9149956,23.9795745 43.6806047,28.9225532 C41.7168011,36.786383 41.2679316,38.6961702 41.2679316,40.3812766 C41.2679316,43.2459574 42.2778878,45.2680851 45.0833216,45.2680851 Z M44.8588869,47.9080851 C38.8552585,47.9080851 35.8814987,43.8638298 35.8814987,37.5165957 C35.8814987,29.0348936 41.4362577,17.4638298 51.6480368,17.4638298 C57.6516652,17.4638298 60.6254251,21.5080851 60.6254251,27.8553191 C60.6254251,36.3370213 55.0706661,47.9080851 44.8588869,47.9080851 Z M71.5411131,45.2680851 C75.6370465,45.2680851 78.0497195,41.3923404 79.2841104,36.4493617 C81.2479141,28.5855319 81.6967835,26.6757447 81.6967835,24.9906383 C81.6967835,22.1259574 80.6868273,20.1038298 77.8252848,20.1038298 C73.7854601,20.1038298 71.372787,23.9795745 70.1383961,28.9225532 C68.1745925,36.786383 67.725723,38.6961702 67.725723,40.3812766 C67.725723,43.2459574 68.7356792,45.2680851 71.5411131,45.2680851 Z M71.3166784,47.9080851 C65.31305,47.9080851 62.3392901,43.8638298 62.3392901,37.5165957 C62.3392901,29.0348936 67.8940491,17.4638298 78.1058282,17.4638298 C84.1094566,17.4638298 87.0832165,21.5080851 87.0832165,27.8553191 C87.0832165,36.3370213 81.5284575,47.9080851 71.3166784,47.9080851 Z M108.77177,47.9080851 C110.679465,47.9080851 112.58716,46.9531915 115.16816,43.6391489 L118.871332,38.9208511 L117.300289,37.7412766 L111.240552,44.2570213 L110.230596,43.8076596 L115.224268,25.8893617 C115.56092,24.5974468 115.729246,23.586383 115.729246,22.5191489 C115.729246,19.5982979 114.214312,17.4638298 110.791683,17.4638298 C105.40525,17.4638298 102.375381,22.6876596 99.1771867,28.4170213 L98.6722086,28.2485106 L101.365425,17.4638298 L90.4803418,19.8791489 L89.919255,22.2382979 L94.9129273,22.2382979 L88.6848642,47.2340426 L94.2957318,47.2340426 L96.3156442,39.1455319 C98.6160999,29.7651064 105.068598,21.6204255 108.659553,21.6204255 C109.613401,21.6204255 110.118379,22.1821277 110.118379,23.1931915 C110.118379,23.5302128 110.06227,23.9795745 109.950053,24.4289362 L105.236924,41.4485106 C105.012489,42.1787234 104.844163,43.3021277 104.844163,44.2008511 C104.844163,46.0544681 105.966337,47.9080851 108.77177,47.9080851 Z" id="Boon"></path>
                    <path d="M138.925083,47.9080851 C130.396564,47.9080851 124.729588,43.92 124.729588,37.2919149 C124.729588,31.8434043 128.208326,28.866383 133.426433,26.226383 L132.472585,25.1591489 C130.17213,22.6314894 128.488869,19.7668085 128.488869,16.2842553 C128.488869,10.8357447 132.921455,7.35319149 139.654496,7.35319149 C146.106994,7.35319149 150.259036,10.4987234 150.259036,15.1608511 C150.259036,19.7668085 145.377581,23.2493617 140.159474,25.7770213 L150.876231,37.6289362 C152.166731,35.1012766 152.952252,32.1242553 153.176687,28.7540426 L149.192971,28.7540426 L149.192971,25.7770213 L160.863576,25.7770213 L160.863576,28.7540426 L156.487099,28.7540426 C156.03823,32.9668085 154.859947,36.786383 152.952252,39.8757447 L154.74773,41.8978723 C156.374882,43.6953191 158.058142,44.3131915 161.256337,44.3131915 L161.256337,47.2340426 L156.543208,47.2340426 C153.513339,47.2340426 151.661753,46.3353191 149.922384,44.4255319 L149.529623,43.9761702 C146.780298,46.4476596 143.189343,47.9080851 138.925083,47.9080851 Z M138.363996,23.7548936 L138.420105,23.8110638 C142.684365,21.6204255 144.872603,19.2051064 144.872603,16.1157447 L144.872603,15.3293617 C144.872603,12.4646809 142.908799,10.386383 139.48617,10.386383 C136.063541,10.386383 134.099737,12.7455319 134.099737,15.7787234 L134.099737,16.3965957 C134.099737,19.1489362 136.231867,21.3395745 138.363996,23.7548936 Z M139.822822,44.5378723 C142.964908,44.5378723 145.545907,43.5829787 147.621928,41.8417021 L135.221911,28.1923404 C131.911499,30.3829787 131.069868,33.0229787 131.069868,36.3370213 L131.069868,37.4042553 C131.069868,41.7855319 134.660824,44.5378723 139.822822,44.5378723 Z" id="&amp;"></path>
                    <path d="M236.235381,43.8025532 C240.458834,43.8025532 242.662375,41.0451064 242.662375,36.3268085 L242.662375,26.1548936 C242.662375,21.4365957 240.458834,18.6791489 236.235381,18.6791489 C232.011928,18.6791489 229.808387,21.4365957 229.808387,26.1548936 L229.808387,36.3268085 C229.808387,41.0451064 232.011928,43.8025532 236.235381,43.8025532 Z M236.235381,47.9693617 C226.870333,47.9693617 220.626968,41.7191489 220.626968,31.2408511 C220.626968,20.7625532 226.870333,14.5123404 236.235381,14.5123404 C245.600429,14.5123404 251.843795,20.7625532 251.843795,31.2408511 C251.843795,41.7191489 245.600429,47.9693617 236.235381,47.9693617 Z M263.728633,10.2842553 C266.911525,10.2842553 268.809018,8.38468085 268.809018,5.50468085 L268.809018,5.19829787 C268.809018,2.31829787 266.911525,0.418723404 263.728633,0.418723404 C260.545741,0.418723404 258.648247,2.31829787 258.648247,5.19829787 L258.648247,5.50468085 C258.648247,8.38468085 260.545741,10.2842553 263.728633,10.2842553 Z M255.526564,47.2340426 L271.991911,47.2340426 L271.991911,43.4348936 L268.074505,43.4348936 L268.074505,14.5123404 L255.526564,16.9634043 L255.526564,20.2110638 L259.44397,21.0076596 L259.44397,43.4348936 L255.526564,43.4348936 L255.526564,47.2340426 Z M274.328072,47.2340426 L290.793418,47.2340426 L290.793418,43.4348936 L286.876012,43.4348936 L286.876012,0.0510638298 L274.328072,2.50212766 L274.328072,5.74978723 L278.245478,6.54638298 L278.245478,43.4348936 L274.328072,43.4348936 L274.328072,47.2340426 Z" id="oil"></path>
                </g>
            </g>
        </g>
    </g>
</svg>